<?xml version="1.0" encoding="UTF-8"?>
<svg version="1.1" xmlns="http://www.w3.org/2000/svg" width="192" height="192">
<path d="M0 0 C1.63351662 -0.0076664 1.63351662 -0.0076664 3.30003357 -0.01548767 C6.87651158 -0.02931404 10.45279543 -0.0284324 14.02929688 -0.02612305 C16.52836172 -0.03001321 19.02742591 -0.03434854 21.52648926 -0.03910828 C26.75482328 -0.0465551 31.98308975 -0.0462899 37.21142578 -0.04101562 C42.56924641 -0.03564172 47.92687814 -0.04270092 53.28466797 -0.06152344 C59.77249606 -0.08402025 66.26016668 -0.09177083 72.74803162 -0.08785057 C75.21350147 -0.08836271 77.67897515 -0.09358018 80.14442444 -0.10366249 C83.59516231 -0.11604539 87.04536399 -0.10922405 90.49609375 -0.09765625 C92.0112986 -0.10912186 92.0112986 -0.10912186 93.55711365 -0.12081909 C102.18623422 -0.05711715 109.98387575 1.61163121 116.74804688 7.2746582 C120.42533068 12.35974703 122.98722317 17.91080972 123.02220154 24.21244812 C123.03217667 25.18091171 123.04215179 26.14937531 123.0524292 27.14718628 C123.05309387 28.19818512 123.05375854 29.24918396 123.05444336 30.33203125 C123.06276688 31.44811264 123.07109039 32.56419403 123.07966614 33.71409607 C123.10376642 37.40489185 123.11253921 41.09551081 123.11914062 44.78637695 C123.12810817 47.35602369 123.13723004 49.92566989 123.14649963 52.49531555 C123.16299317 57.88458883 123.17072309 63.27379111 123.17358398 68.66308594 C123.17721331 74.8724221 123.20706853 81.08126219 123.24898857 87.29044694 C123.28801228 93.28283024 123.29917949 99.27494093 123.30031013 105.26746559 C123.30450692 107.80749001 123.31691924 110.34751506 123.33782768 112.88745689 C123.3648063 116.44884235 123.3598954 120.00887563 123.34741211 123.5703125 C123.36966354 125.13162903 123.36966354 125.13162903 123.3923645 126.7244873 C123.31391572 134.61916964 121.37237072 141.25600606 115.99257565 147.2211256 C109.19832977 153.7385044 101.24913069 153.56760278 92.32421875 153.53344727 C91.19327286 153.5369519 90.06232697 153.54045654 88.89710999 153.54406738 C85.17027594 153.55284751 81.44363275 153.54704854 77.71679688 153.5402832 C75.12040165 153.54163092 72.52400667 153.54357234 69.9276123 153.54608154 C64.49061442 153.54902777 59.05368785 153.54494301 53.61669922 153.53540039 C47.34381289 153.52451734 41.07105661 153.52804348 34.79817343 153.5390532 C28.74706836 153.54924586 22.69602657 153.54813764 16.64491272 153.54228973 C14.0773161 153.54095697 11.50971615 153.54258788 8.94212341 153.54724884 C5.35195158 153.55233606 1.76202835 153.54457263 -1.828125 153.53344727 C-2.88599716 153.53749573 -3.94386932 153.54154419 -5.03379822 153.54571533 C-12.32508625 153.50392482 -20.37134582 153.14577747 -25.84960938 147.6809082 C-26.57470703 146.73731445 -26.57470703 146.73731445 -27.31445312 145.7746582 C-27.80042969 145.1662207 -28.28640625 144.5577832 -28.78710938 143.9309082 C-32.92479953 136.42789673 -33.69301473 128.71733466 -33.64013672 120.29223633 C-33.64539368 119.2436998 -33.65065063 118.19516327 -33.65606689 117.11485291 C-33.66917821 113.67838261 -33.6605601 110.24238251 -33.65039062 106.8059082 C-33.6524139 104.40034904 -33.65532745 101.99479047 -33.65908813 99.5892334 C-33.6634995 94.55934787 -33.65711859 89.52962268 -33.64306641 84.49975586 C-33.62597549 78.07082605 -33.63582302 71.64227206 -33.6537838 65.21335602 C-33.66465365 60.24950356 -33.66116058 55.28573936 -33.65340042 50.32188416 C-33.65140727 47.95214289 -33.65382639 45.58239347 -33.66083908 43.21266174 C-33.6685062 39.89392032 -33.65677539 36.57577725 -33.64013672 33.25708008 C-33.64620941 32.28951279 -33.6522821 31.3219455 -33.65853882 30.32505798 C-33.57535154 21.31315283 -32.12035154 13.33060388 -25.71289062 6.6730957 C-25.23078125 6.21161133 -24.74867187 5.75012695 -24.25195312 5.2746582 C-23.35476562 4.3774707 -23.35476562 4.3774707 -22.43945312 3.4621582 C-15.62296501 -0.23822106 -7.54865042 -0.01851349 0 0 Z " fill="#40B0EE" transform="translate(51.251953125,18.725341796875)"/>
<path d="M0 0 C1.8253125 -0.01546875 1.8253125 -0.01546875 3.6875 -0.03125 C7.6656334 0.60675253 8.59362986 1.32523614 11 4.5 C11.5300293 7.78393555 11.5300293 7.78393555 11.57421875 11.63671875 C11.58838333 12.31676468 11.60254791 12.99681061 11.61714172 13.69746399 C11.65895112 15.86097195 11.67426909 18.02364533 11.6875 20.1875 C11.71653385 22.36167978 11.75101649 24.53564749 11.78999329 26.70967102 C11.82276219 28.67438813 11.84080103 30.63933431 11.8581543 32.60424805 C11.66985501 35.39374317 11.66985501 35.39374317 13 36.5 C15.79993597 36.60103255 18.57468644 36.63970088 21.375 36.6328125 C22.21466309 36.63376923 23.05432617 36.63472595 23.91943359 36.63571167 C25.69824295 36.63639348 27.47705477 36.63453917 29.25585938 36.63037109 C31.98833776 36.62502283 34.72065176 36.63031605 37.453125 36.63671875 C39.1770837 36.63605797 40.90104229 36.63477681 42.625 36.6328125 C43.44790527 36.63483673 44.27081055 36.63686096 45.11865234 36.63894653 C48.86379866 36.9857546 48.86379866 36.9857546 52 35.5 C52.10986392 33.34054051 52.1559305 31.17778626 52.17578125 29.015625 C52.19899214 27.67446369 52.22310999 26.33331783 52.24804688 24.9921875 C52.28307916 22.87457142 52.31245216 20.75751818 52.32592773 18.63964844 C52.3414702 16.59760795 52.38172754 14.55722412 52.42578125 12.515625 C52.44036377 11.29133789 52.45494629 10.06705078 52.4699707 8.80566406 C53.09483615 4.90852998 54.18297664 3.225794 57 0.5 C60.3125 -0.12890625 60.3125 -0.12890625 64 -0.0625 C65.216875 -0.06378906 66.43375 -0.06507812 67.6875 -0.06640625 C71.68648541 0.61738253 72.62563096 1.24848158 75 4.5 C75.39454138 7.47721819 75.54727452 10.08409231 75.51757812 13.06054688 C75.5245874 13.92277359 75.53159668 14.78500031 75.53881836 15.6733551 C75.55641689 18.52214813 75.54476912 21.36994696 75.53125 24.21875 C75.53394438 26.19885448 75.53782635 28.17895767 75.54284668 30.15905762 C75.54874424 34.30847778 75.54017038 38.45755347 75.52148438 42.60693359 C75.49869477 47.92698333 75.51181646 53.24622592 75.53577423 58.56624603 C75.55022517 62.65490811 75.54562943 66.74337868 75.53526306 70.83204651 C75.53259383 72.79366654 75.53587242 74.75530393 75.54518127 76.71690369 C75.55533523 79.4582223 75.53986226 82.19823206 75.51757812 84.93945312 C75.52567505 85.75100357 75.53377197 86.56255402 75.54211426 87.3986969 C75.48842298 90.96204799 75.30458241 93.08289748 73.17468262 95.99963379 C70.08234531 98.1331122 67.72467393 98.06644563 64 98.0625 C62.783125 98.08441406 61.56625 98.10632813 60.3125 98.12890625 C57 97.5 57 97.5 54.83105469 95.46972656 C52.53116349 91.73960969 52.39769244 88.61084796 52.390625 84.35546875 C52.37408875 83.58568192 52.35755249 82.81589508 52.34051514 82.02278137 C52.29214714 79.57760553 52.27069035 77.13305104 52.25 74.6875 C52.22183075 73.02405747 52.19190198 71.36064374 52.16015625 69.69726562 C52.08639189 65.63156161 52.03674945 61.56620024 52 57.5 C46.46395625 57.61793339 40.92810387 57.74215781 35.39233398 57.87231445 C33.50760782 57.91572933 31.62284064 57.95739943 29.73803711 57.99731445 C27.03486751 58.05485893 24.33190564 58.11859804 21.62890625 58.18359375 C20.78099014 58.20030624 19.93307404 58.21701874 19.0594635 58.23423767 C15.21707924 57.96409195 15.21707924 57.96409195 12 59.5 C11.8894166 61.97223377 11.83840524 64.42126117 11.82421875 66.89453125 C11.80101523 68.42253974 11.77689767 69.95053457 11.75195312 71.47851562 C11.71685764 73.89470474 11.68751171 76.31039389 11.67407227 78.72680664 C11.65858352 81.05416977 11.61836434 83.38005823 11.57421875 85.70703125 C11.57612717 86.42695755 11.57803558 87.14688385 11.58000183 87.8886261 C11.49736889 91.28182499 11.22665183 93.19322952 9.18701172 95.95385742 C5.95721477 98.23721354 3.34514804 98.03055834 -0.5625 98 C-1.57086914 98.02320313 -1.57086914 98.02320313 -2.59960938 98.046875 C-5.51241407 98.02373455 -7.46211477 97.97701465 -9.68934631 96.00183105 C-11.58077029 92.39140116 -11.42613145 88.91977157 -11.40405273 84.93945312 C-11.41091599 84.07722641 -11.41777924 83.21499969 -11.42485046 82.3266449 C-11.4431443 79.4780122 -11.43927768 76.62992881 -11.43359375 73.78125 C-11.43815397 71.80114563 -11.44345906 69.82104285 -11.44947815 67.84094238 C-11.45841407 63.69158497 -11.45598022 59.54241997 -11.44604492 55.39306641 C-11.43454844 50.07304553 -11.45477479 44.75368772 -11.48396206 39.43375397 C-11.50229753 35.34511083 -11.502037 31.25662741 -11.49632454 27.16795349 C-11.49617103 25.20632496 -11.50223953 23.2446858 -11.51461601 21.28309631 C-11.52947597 18.54182162 -11.51888643 15.8017826 -11.50170898 13.06054688 C-11.51137695 12.24899643 -11.52104492 11.43744598 -11.53100586 10.6013031 C-11.48416816 7.03600171 -11.30481924 4.91802092 -9.17567444 1.99816895 C-6.07820363 -0.13474878 -3.72677583 -0.03158285 0 0 Z " fill="#D6E0E8" transform="translate(64,45.5)"/>
</svg>
